<svg width="1198" height="1080" viewBox="0 0 1198 1080" fill="none" xmlns="http://www.w3.org/2000/svg">
<path d="M450.556 816.437L443.906 790.902L461.345 789.444L465.252 806.177L450.556 816.437Z" fill="#0D0D0D"/>
<path d="M434.887 755.028L434.096 745.561L448.048 744.395L434.887 755.028Z" fill="#0D0D0D"/>
<path d="M426.035 721.148L417.308 688.762L440.025 708.439L443.727 734.722L426.035 721.148Z" fill="#0D0D0D"/>
<path d="M406.88 666.051L314.124 330.611L331.934 315.575L426.643 656.372L406.88 666.051Z" fill="#0D0D0D"/>
<path d="M382.753 653.517L415.375 767.697M419.987 780.859L436.153 842.226M444.464 869.629L450.823 897.697M460.091 930.539L467.114 954.538M473.097 972.1L490.966 1035.83M498.281 1063.32L504.97 1083.33M530.945 1184.02L549.48 1249.7M436.466 1296.28L444.485 1320.19M392.206 1132.89L409.577 1196.67M443.906 790.902L450.556 816.437L465.252 806.177L461.345 789.444L443.906 790.902ZM434.096 745.561L434.887 755.028L448.048 744.395L434.096 745.561ZM417.308 688.762L426.035 721.148L443.727 734.722L440.025 708.439L417.308 688.762ZM314.124 330.611L406.88 666.051L426.643 656.372L331.934 315.575L314.124 330.611Z" stroke="#0D0D0D" stroke-width="4"/>
<path d="M721.98 181.191L702.38 198.857L693.052 184.051L706.103 172.874L721.98 181.191Z" fill="#0D0D0D"/>
<path d="M674.695 223.389L666.657 228.453L659.195 216.608L674.695 223.389Z" fill="#0D0D0D"/>
<path d="M648.703 246.855L623.979 269.521L630.977 240.293L652.599 224.899L648.703 246.855Z" fill="#0D0D0D"/>
<path d="M608.627 289.239L353.64 526.106L332.09 517.226L590.931 276.158L608.627 289.239Z" fill="#0D0D0D"/>
<path d="M608.618 316.428L694.929 234.871M704.486 224.714L751.504 182.093M771.997 162.092L793.979 143.516M818.858 120.161L836.923 102.871M849.754 89.4692L898.088 44.2465M919.114 25.0914L933.794 9.93399M1011.19 -59.5075L1060.95 -106.219M1154.35 -27.3701L1171.88 -45.5057M1029.73 87.184L1078.33 42.3844M702.38 198.857L721.98 181.191L706.103 172.874L693.052 184.051L702.38 198.857ZM666.657 228.453L674.695 223.389L659.195 216.608L666.657 228.453ZM623.979 269.521L648.703 246.855L652.599 224.899L630.977 240.293L623.979 269.521ZM353.64 526.106L608.627 289.239L590.931 276.158L332.09 517.226L353.64 526.106Z" stroke="#0D0D0D" stroke-width="4"/>
<path d="M343 534L762.5 -78H-80.5V1143.5H496.5L343 534Z" fill="#0D0D0D" stroke="#0D0D0D"/>
</svg>
