<svg width="1920" height="293" viewBox="0 0 1920 293" fill="none" xmlns="http://www.w3.org/2000/svg">
<path d="M946.5 125.5L926 105L806.5 120.5V144.5L946.5 125.5Z" fill="#0D0D0D"/>
<path d="M793.5 145V122L737 133L747.5 155L793.5 145Z" fill="#0D0D0D"/>
<path d="M971 122C969.4 122 964.333 108.667 962 102L1022 95L1031 113.5C1011.67 116.333 972.6 122 971 122Z" fill="#0D0D0D"/>
<path d="M461 213.5L440.5 193L321 208.5V232.5L461 213.5Z" fill="#0D0D0D"/>
<path d="M43.5 290L160 256.5" stroke="#0D0D0D" stroke-width="6"/>
<path d="M300.5 233V210L244 221L254.5 243L300.5 233Z" fill="#0D0D0D"/>
<path d="M478 210C476.4 210 471.333 196.667 469 190L529 183L538 201.5C518.667 204.333 479.6 210 478 210Z" fill="#0D0D0D"/>
<path d="M1630 26C1725.17 12 1916.5 -15.9 1920.5 -15.5V-62H0V270.5L22 277.5L230.5 227L241 214.5L756.5 121.5L1108 77.5L1145.5 89.5L1264.5 73V62L1630 16.5V26Z" fill="#0D0D0D"/>
<path d="M1035.13 132.497L1061.16 128.208L1061.02 145.708L1044 148.069L1035.13 132.497Z" fill="#0D0D0D"/>
<path d="M1097.71 122.505L1107.21 122.582L1107.1 136.582L1097.71 122.505Z" fill="#0D0D0D"/>
<path d="M1132.26 116.786L1165.3 111.054L1143.63 131.879L1117.12 133.163L1132.26 116.786Z" fill="#0D0D0D"/>
<path d="M1188.87 102.745L1531.39 41.0262L1544.73 60.1352L1196.71 123.309L1188.87 102.745Z" fill="#0D0D0D"/>
<path d="M1035.13 132.497L1061.16 128.208L1061.02 145.708L1044 148.069L1035.13 132.497Z" stroke="#0D0D0D" stroke-width="4"/>
<path d="M1097.71 122.505L1107.21 122.582L1107.1 136.582L1097.71 122.505Z" stroke="#0D0D0D" stroke-width="4"/>
<path d="M1132.26 116.786L1165.3 111.054L1143.63 131.879L1117.12 133.163L1132.26 116.786Z" stroke="#0D0D0D" stroke-width="4"/>
<path d="M1188.87 102.745L1531.39 41.0262L1544.73 60.1352L1196.71 123.309L1188.87 102.745Z" stroke="#0D0D0D" stroke-width="4"/>
</svg>
